<svg xmlns="http://www.w3.org/2000/svg" xmlns:xlink="http://www.w3.org/1999/xlink" width="10"
    zoomAndPan="magnify" viewBox="0 0 396.75 396.749984" height="10"
    preserveAspectRatio="xMidYMid meet" version="1.0">
    <path fill="#0085f8"
        d="M 272.429688 198.5625 C 272.433594 201.019531 272.3125 203.46875 272.070312 205.914062 C 271.828125 208.359375 271.464844 210.785156 270.980469 213.195312 C 270.496094 215.605469 269.890625 217.984375 269.167969 220.332031 C 268.445312 222.679688 267.605469 224.984375 266.652344 227.25 C 265.699219 229.515625 264.632812 231.726562 263.457031 233.882812 C 262.28125 236.042969 261 238.136719 259.617188 240.164062 C 258.230469 242.195312 256.746094 244.148438 255.167969 246.03125 C 253.585938 247.910156 251.914062 249.710938 250.15625 251.421875 C 248.746094 252.800781 247.28125 254.121094 245.761719 255.382812 C 244.371094 256.539062 242.9375 257.644531 241.460938 258.699219 C 241.410156 258.738281 241.359375 258.773438 241.304688 258.8125 C 235.679688 262.816406 229.609375 265.964844 223.097656 268.257812 C 216.585938 270.546875 209.882812 271.894531 202.992188 272.296875 C 202.082031 272.351562 201.167969 272.390625 200.246094 272.410156 C 199.683594 272.425781 199.125 272.429688 198.558594 272.429688 C 198.363281 272.429688 198.167969 272.429688 197.972656 272.429688 C 197.078125 272.421875 196.195312 272.398438 195.308594 272.359375 C 193.796875 272.296875 192.292969 272.183594 190.800781 272.027344 C 188.96875 271.835938 187.152344 271.578125 185.359375 271.257812 C 179.996094 270.285156 174.804688 268.738281 169.785156 266.613281 C 164.765625 264.488281 160.042969 261.839844 155.613281 258.664062 C 155.59375 258.652344 155.574219 258.636719 155.554688 258.621094 C 154.667969 257.988281 153.800781 257.339844 152.945312 256.667969 C 152.910156 256.636719 152.878906 256.609375 152.84375 256.582031 C 150.65625 254.855469 148.574219 253.015625 146.597656 251.058594 C 144.621094 249.097656 142.757812 247.035156 141.011719 244.867188 C 139.269531 242.699219 137.652344 240.4375 136.164062 238.085938 C 134.671875 235.734375 133.320312 233.304688 132.105469 230.800781 C 130.890625 228.296875 129.820312 225.734375 128.894531 223.109375 C 127.972656 220.484375 127.195312 217.8125 126.574219 215.101562 C 125.949219 212.390625 125.480469 209.648438 125.164062 206.882812 C 124.851562 204.117188 124.695312 201.34375 124.691406 198.5625 C 124.691406 157.765625 157.765625 124.691406 198.558594 124.691406 C 239.355469 124.691406 272.429688 157.765625 272.429688 198.5625 Z M 272.429688 198.5625 "
        fill-opacity="1" fill-rule="nonzero" />
    <path fill="#ffffff"
        d="M 152.945312 256.667969 C 152.910156 256.636719 152.878906 256.609375 152.84375 256.582031 C 153.339844 254.371094 154.1875 252.304688 155.386719 250.382812 C 156.335938 248.84375 157.492188 247.472656 158.847656 246.269531 C 160.199219 245.066406 161.699219 244.085938 163.34375 243.324219 C 163.367188 243.316406 163.386719 243.304688 163.40625 243.296875 C 165.636719 242.292969 167.976562 241.792969 170.417969 241.792969 L 228.496094 241.792969 C 229.964844 241.792969 231.414062 241.980469 232.835938 242.351562 C 233.097656 242.421875 233.355469 242.492188 233.609375 242.578125 C 233.644531 242.585938 233.683594 242.601562 233.71875 242.613281 C 233.828125 242.644531 233.9375 242.679688 234.042969 242.71875 C 234.050781 242.71875 234.054688 242.722656 234.0625 242.726562 C 234.089844 242.734375 234.109375 242.742188 234.132812 242.75 C 234.136719 242.753906 234.140625 242.753906 234.148438 242.757812 C 234.332031 242.820312 234.515625 242.890625 234.695312 242.957031 C 234.878906 243.03125 235.0625 243.105469 235.246094 243.183594 C 235.269531 243.191406 235.289062 243.203125 235.308594 243.210938 C 235.421875 243.257812 235.527344 243.308594 235.636719 243.359375 C 235.675781 243.375 235.714844 243.390625 235.75 243.410156 C 235.855469 243.457031 235.957031 243.507812 236.054688 243.558594 C 236.09375 243.578125 236.132812 243.597656 236.167969 243.613281 C 236.1875 243.621094 236.207031 243.632812 236.226562 243.644531 C 236.375 243.71875 236.527344 243.796875 236.675781 243.878906 C 236.738281 243.910156 236.796875 243.945312 236.859375 243.976562 C 236.878906 243.992188 236.90625 244.003906 236.925781 244.015625 C 238.382812 244.835938 239.699219 245.84375 240.875 247.03125 C 241.566406 247.730469 242.203125 248.480469 242.78125 249.277344 L 242.785156 249.277344 L 242.890625 249.429688 C 244.183594 251.25 245.140625 253.234375 245.761719 255.382812 C 244.371094 256.539062 242.9375 257.644531 241.460938 258.699219 C 241.410156 258.738281 241.359375 258.773438 241.304688 258.8125 C 235.679688 262.816406 229.609375 265.964844 223.097656 268.257812 C 216.585938 270.546875 209.882812 271.894531 202.992188 272.296875 C 202.082031 272.351562 201.167969 272.390625 200.246094 272.410156 C 199.683594 272.425781 199.125 272.429688 198.558594 272.429688 C 198.363281 272.429688 198.167969 272.429688 197.972656 272.429688 C 197.078125 272.421875 196.195312 272.398438 195.308594 272.359375 C 193.796875 272.296875 192.292969 272.183594 190.800781 272.027344 C 188.96875 271.835938 187.152344 271.578125 185.359375 271.257812 C 179.996094 270.285156 174.804688 268.738281 169.785156 266.613281 C 164.765625 264.488281 160.042969 261.839844 155.613281 258.664062 C 155.59375 258.652344 155.574219 258.636719 155.554688 258.621094 C 154.667969 257.988281 153.800781 257.339844 152.945312 256.667969 Z M 152.945312 256.667969 "
        fill-opacity="1" fill-rule="nonzero" />
    <path fill="#140034"
        d="M 198.558594 272.867188 C 198.363281 272.867188 198.164062 272.867188 197.964844 272.863281 C 197.121094 272.859375 196.246094 272.835938 195.292969 272.792969 C 193.773438 272.730469 192.25 272.617188 190.757812 272.460938 C 188.960938 272.273438 187.121094 272.015625 185.285156 271.6875 C 179.886719 270.710938 174.664062 269.152344 169.617188 267.015625 C 164.566406 264.878906 159.8125 262.214844 155.355469 259.019531 C 155.332031 259 155.308594 258.984375 155.285156 258.964844 C 154.429688 258.355469 153.550781 257.695312 152.679688 257.011719 C 152.636719 256.980469 152.601562 256.949219 152.558594 256.914062 L 152.359375 256.742188 L 152.417969 256.484375 C 152.921875 254.226562 153.789062 252.117188 155.015625 250.152344 C 155.988281 248.574219 157.167969 247.167969 158.554688 245.9375 C 159.945312 244.707031 161.480469 243.703125 163.164062 242.925781 L 163.191406 242.914062 C 163.207031 242.90625 163.222656 242.898438 163.238281 242.894531 C 165.523438 241.867188 167.917969 241.355469 170.417969 241.359375 L 228.496094 241.359375 C 230.003906 241.355469 231.488281 241.546875 232.949219 241.929688 C 233.167969 241.988281 233.457031 242.066406 233.742188 242.160156 L 233.847656 242.195312 C 233.960938 242.230469 234.074219 242.265625 234.183594 242.304688 L 234.214844 242.316406 C 234.222656 242.320312 234.246094 242.328125 234.269531 242.335938 L 234.289062 242.34375 C 234.292969 242.34375 234.296875 242.347656 234.304688 242.347656 C 234.488281 242.414062 234.671875 242.480469 234.851562 242.550781 C 235.042969 242.625 235.234375 242.703125 235.421875 242.785156 C 235.425781 242.785156 235.445312 242.796875 235.46875 242.804688 C 235.597656 242.859375 235.707031 242.910156 235.820312 242.964844 C 235.855469 242.976562 235.898438 242.996094 235.941406 243.019531 C 236.046875 243.066406 236.152344 243.117188 236.25 243.167969 L 236.28125 243.183594 C 236.300781 243.191406 236.320312 243.203125 236.339844 243.210938 C 236.375 243.226562 236.40625 243.242188 236.4375 243.261719 C 236.574219 243.328125 236.730469 243.410156 236.882812 243.492188 L 237.125 243.625 C 238.621094 244.46875 239.972656 245.503906 241.183594 246.722656 C 241.839844 247.386719 242.445312 248.09375 243.003906 248.84375 L 243.246094 249.171875 C 244.566406 251.035156 245.546875 253.066406 246.183594 255.257812 L 246.261719 255.535156 L 246.042969 255.714844 C 244.640625 256.882812 243.183594 258.007812 241.714844 259.054688 L 241.5625 259.164062 C 238.316406 261.472656 234.910156 263.503906 231.339844 265.265625 C 226.914062 267.445312 222.320312 269.164062 217.550781 270.421875 C 212.785156 271.679688 207.9375 272.449219 203.015625 272.734375 C 202.085938 272.789062 201.15625 272.828125 200.253906 272.847656 C 199.71875 272.859375 199.164062 272.867188 198.558594 272.867188 Z M 153.328125 256.410156 C 154.160156 257.0625 154.992188 257.683594 155.804688 258.265625 L 155.863281 258.308594 C 160.265625 261.464844 164.964844 264.101562 169.953125 266.210938 C 174.945312 268.324219 180.105469 269.863281 185.4375 270.828125 C 187.253906 271.152344 189.074219 271.410156 190.847656 271.59375 C 192.324219 271.75 193.828125 271.859375 195.328125 271.921875 C 196.273438 271.964844 197.136719 271.988281 197.972656 271.992188 C 198.78125 272.003906 199.535156 271.992188 200.234375 271.976562 C 201.128906 271.957031 202.042969 271.917969 202.964844 271.863281 C 212.792969 271.296875 222.121094 268.835938 230.953125 264.484375 C 234.480469 262.746094 237.847656 260.738281 241.050781 258.457031 L 241.203125 258.347656 C 242.582031 257.363281 243.945312 256.316406 245.261719 255.230469 C 244.652344 253.234375 243.742188 251.386719 242.539062 249.683594 L 242.425781 249.535156 C 241.863281 248.753906 241.242188 248.023438 240.5625 247.339844 C 239.417969 246.179688 238.132812 245.199219 236.710938 244.394531 C 236.691406 244.382812 236.664062 244.371094 236.640625 244.355469 L 236.464844 244.261719 C 236.324219 244.183594 236.175781 244.105469 236.03125 244.035156 L 236.003906 244.019531 L 236.195312 243.625 L 235.980469 244.003906 C 235.960938 243.996094 235.921875 243.980469 235.882812 243.960938 C 235.769531 243.902344 235.671875 243.855469 235.570312 243.808594 L 235.542969 243.792969 C 235.519531 243.78125 235.492188 243.769531 235.464844 243.761719 C 235.347656 243.707031 235.246094 243.660156 235.140625 243.613281 L 235.070312 243.585938 C 234.894531 243.507812 234.714844 243.433594 234.535156 243.363281 C 234.363281 243.296875 234.183594 243.230469 234.003906 243.167969 L 233.886719 243.125 C 233.800781 243.09375 233.695312 243.0625 233.589844 243.027344 L 233.480469 242.992188 C 233.207031 242.90625 232.933594 242.828125 232.726562 242.773438 C 231.339844 242.410156 229.929688 242.230469 228.496094 242.230469 L 170.417969 242.230469 C 168.035156 242.226562 165.757812 242.714844 163.585938 243.695312 L 163.558594 243.703125 C 163.546875 243.710938 163.53125 243.71875 163.515625 243.722656 C 161.910156 244.464844 160.449219 245.425781 159.128906 246.597656 C 157.804688 247.769531 156.679688 249.109375 155.753906 250.617188 C 154.628906 252.414062 153.820312 254.347656 153.328125 256.410156 Z M 153.328125 256.410156 "
        fill-opacity="1" fill-rule="nonzero" />
    <path fill="#140034"
        d="M 241.304688 258.8125 C 238.082031 261.105469 234.695312 263.125 231.144531 264.875 C 230.554688 263.578125 229.804688 262.378906 228.902344 261.277344 C 224.191406 255.683594 175.6875 254.460938 170.136719 261.277344 C 169.082031 262.613281 168.242188 264.074219 167.609375 265.652344 C 163.390625 263.703125 159.390625 261.371094 155.613281 258.664062 C 155.59375 258.652344 155.574219 258.636719 155.554688 258.621094 C 154.667969 257.988281 153.800781 257.339844 152.945312 256.667969 C 153.425781 254.476562 154.253906 252.425781 155.429688 250.515625 C 156.375 248.957031 157.527344 247.566406 158.886719 246.34375 C 160.246094 245.125 161.75 244.128906 163.40625 243.355469 L 163.40625 243.296875 C 165.636719 242.292969 167.976562 241.792969 170.417969 241.792969 L 228.496094 241.792969 C 229.964844 241.792969 231.414062 241.980469 232.835938 242.351562 C 232.949219 242.382812 233.058594 242.414062 233.167969 242.445312 C 233.203125 242.453125 233.234375 242.464844 233.269531 242.472656 C 233.382812 242.507812 233.496094 242.539062 233.609375 242.578125 C 233.644531 242.585938 233.683594 242.601562 233.71875 242.613281 C 233.828125 242.644531 233.9375 242.679688 234.042969 242.71875 C 234.050781 242.71875 234.054688 242.722656 234.0625 242.726562 C 234.089844 242.734375 234.109375 242.742188 234.132812 242.75 C 234.136719 242.753906 234.140625 242.753906 234.148438 242.757812 C 234.332031 242.820312 234.515625 242.890625 234.695312 242.957031 C 234.878906 243.03125 235.0625 243.105469 235.246094 243.183594 C 235.269531 243.191406 235.292969 243.203125 235.308594 243.210938 C 235.421875 243.257812 235.527344 243.308594 235.636719 243.359375 C 235.675781 243.375 235.714844 243.390625 235.75 243.410156 C 235.855469 243.457031 235.957031 243.507812 236.054688 243.558594 C 236.09375 243.578125 236.132812 243.597656 236.171875 243.613281 C 236.1875 243.621094 236.207031 243.632812 236.226562 243.644531 C 236.375 243.71875 236.527344 243.796875 236.675781 243.878906 C 236.738281 243.910156 236.796875 243.945312 236.859375 243.976562 C 236.878906 243.992188 236.90625 244.003906 236.925781 244.015625 C 238.382812 244.839844 239.695312 245.84375 240.875 247.03125 C 241.566406 247.730469 242.203125 248.480469 242.78125 249.277344 C 242.816406 249.328125 242.851562 249.378906 242.890625 249.429688 C 244.183594 251.25 245.140625 253.234375 245.761719 255.382812 C 244.371094 256.539062 242.9375 257.644531 241.460938 258.699219 C 241.410156 258.738281 241.359375 258.773438 241.304688 258.8125 Z M 241.304688 258.8125 "
        fill-opacity="1" fill-rule="nonzero" />
    <path fill="#140034"
        d="M 167.835938 266.238281 L 167.425781 266.046875 C 163.183594 264.085938 159.160156 261.742188 155.355469 259.019531 C 155.332031 259 155.308594 258.984375 155.285156 258.964844 C 154.429688 258.355469 153.550781 257.695312 152.675781 257.007812 L 152.460938 256.839844 L 152.519531 256.574219 C 153.011719 254.332031 153.855469 252.238281 155.058594 250.289062 C 156 248.726562 157.148438 247.332031 158.496094 246.105469 C 159.84375 244.878906 161.339844 243.867188 162.980469 243.074219 L 162.984375 243.007812 L 163.230469 242.898438 C 165.515625 241.867188 167.914062 241.355469 170.417969 241.359375 L 228.496094 241.359375 C 230.003906 241.355469 231.488281 241.546875 232.949219 241.929688 C 233.066406 241.964844 233.179688 241.996094 233.292969 242.027344 C 233.316406 242.035156 233.359375 242.046875 233.40625 242.058594 C 233.507812 242.089844 233.625 242.125 233.738281 242.160156 L 233.847656 242.195312 C 233.957031 242.230469 234.074219 242.265625 234.183594 242.304688 L 234.214844 242.316406 C 234.222656 242.320312 234.246094 242.328125 234.269531 242.335938 L 234.289062 242.34375 C 234.292969 242.34375 234.296875 242.347656 234.304688 242.347656 C 234.488281 242.414062 234.671875 242.480469 234.851562 242.550781 C 235.042969 242.625 235.234375 242.703125 235.421875 242.785156 C 235.425781 242.785156 235.445312 242.796875 235.46875 242.804688 C 235.597656 242.859375 235.707031 242.910156 235.820312 242.964844 C 235.855469 242.976562 235.898438 242.996094 235.941406 243.019531 C 236.046875 243.066406 236.152344 243.117188 236.25 243.167969 L 236.28125 243.183594 C 236.300781 243.191406 236.320312 243.203125 236.339844 243.210938 C 236.375 243.226562 236.40625 243.242188 236.4375 243.261719 C 236.574219 243.328125 236.730469 243.410156 236.882812 243.492188 L 237.363281 243.746094 L 237.363281 243.765625 C 238.765625 244.585938 240.039062 245.570312 241.183594 246.722656 C 241.890625 247.441406 242.542969 248.207031 243.132812 249.023438 C 243.171875 249.074219 243.203125 249.117188 243.234375 249.160156 C 244.5625 251.027344 245.542969 253.058594 246.183594 255.257812 L 246.261719 255.535156 L 246.042969 255.714844 C 244.640625 256.882812 243.183594 258.007812 241.714844 259.054688 L 241.558594 259.167969 C 238.3125 261.472656 234.90625 263.507812 231.339844 265.265625 L 230.941406 265.460938 L 230.75 265.058594 C 230.175781 263.800781 229.445312 262.632812 228.566406 261.558594 C 226.335938 258.90625 212.25 256.925781 196.511719 257.054688 C 182.621094 257.164062 172.644531 258.890625 170.472656 261.554688 C 169.449219 262.859375 168.628906 264.28125 168.011719 265.820312 Z M 153.433594 256.492188 C 154.230469 257.113281 155.027344 257.710938 155.804688 258.265625 L 155.863281 258.308594 C 159.496094 260.910156 163.339844 263.164062 167.386719 265.066406 C 168.007812 263.605469 168.8125 262.25 169.796875 261.003906 C 173.300781 256.699219 191.125 256.226562 196.503906 256.179688 C 210.308594 256.074219 226.476562 257.722656 229.234375 260.996094 C 230.070312 262.011719 230.773438 263.105469 231.347656 264.289062 C 234.730469 262.59375 237.96875 260.652344 241.050781 258.457031 L 241.203125 258.347656 C 242.582031 257.363281 243.945312 256.316406 245.261719 255.230469 C 244.652344 253.234375 243.742188 251.382812 242.535156 249.679688 C 242.507812 249.644531 242.472656 249.59375 242.433594 249.542969 C 241.867188 248.761719 241.242188 248.027344 240.5625 247.339844 C 239.414062 246.179688 238.132812 245.199219 236.710938 244.394531 L 236.675781 244.375 C 236.664062 244.367188 236.652344 244.363281 236.640625 244.355469 L 236.464844 244.261719 C 236.324219 244.183594 236.175781 244.105469 236.03125 244.035156 L 236.003906 244.019531 L 236.195312 243.625 L 235.980469 244.003906 C 235.960938 243.996094 235.921875 243.980469 235.882812 243.960938 C 235.769531 243.902344 235.671875 243.855469 235.570312 243.808594 L 235.542969 243.792969 C 235.519531 243.78125 235.492188 243.769531 235.464844 243.761719 C 235.347656 243.707031 235.246094 243.660156 235.140625 243.613281 L 235.070312 243.585938 C 234.894531 243.507812 234.714844 243.433594 234.535156 243.363281 C 234.363281 243.296875 234.183594 243.230469 234.003906 243.167969 L 233.886719 243.125 C 233.800781 243.09375 233.695312 243.0625 233.589844 243.027344 L 233.480469 242.992188 C 233.367188 242.957031 233.257812 242.925781 233.144531 242.894531 C 233.109375 242.878906 233.085938 242.875 233.066406 242.871094 C 232.9375 242.832031 232.828125 242.800781 232.722656 242.773438 C 231.335938 242.410156 229.925781 242.230469 228.496094 242.230469 L 170.417969 242.230469 C 168.128906 242.226562 165.933594 242.679688 163.832031 243.585938 L 163.828125 243.640625 L 163.585938 243.753906 C 161.972656 244.503906 160.5 245.476562 159.171875 246.667969 C 157.847656 247.859375 156.722656 249.21875 155.800781 250.746094 C 154.699219 252.53125 153.910156 254.449219 153.433594 256.492188 Z M 153.433594 256.492188 "
        fill-opacity="1" fill-rule="nonzero" />
    <path fill="#ffffff"
        d="M 250.15625 250.882812 L 250.15625 251.421875 C 248.746094 252.800781 247.28125 254.121094 245.761719 255.382812 C 244.371094 256.539062 242.9375 257.644531 241.460938 258.699219 L 241.460938 250.882812 C 241.460938 250.492188 241.585938 250.144531 241.835938 249.84375 C 242.082031 249.542969 242.398438 249.355469 242.78125 249.277344 L 242.785156 249.277344 C 242.886719 249.257812 242.992188 249.25 243.097656 249.25 L 248.519531 249.25 C 248.738281 249.25 248.945312 249.289062 249.144531 249.371094 C 249.347656 249.457031 249.523438 249.574219 249.675781 249.726562 C 249.828125 249.878906 249.945312 250.058594 250.03125 250.257812 C 250.113281 250.457031 250.15625 250.664062 250.15625 250.882812 Z M 250.15625 250.882812 "
        fill-opacity="1" fill-rule="nonzero" />
    <path fill="#140034"
        d="M 241.027344 259.546875 L 241.027344 250.882812 C 241.027344 250.640625 241.066406 250.410156 241.148438 250.183594 C 241.230469 249.957031 241.347656 249.753906 241.5 249.566406 C 241.652344 249.382812 241.828125 249.226562 242.035156 249.105469 C 242.242188 248.980469 242.460938 248.898438 242.699219 248.851562 L 242.742188 248.84375 C 242.859375 248.824219 242.976562 248.8125 243.097656 248.8125 L 248.519531 248.8125 C 248.796875 248.8125 249.058594 248.863281 249.3125 248.96875 C 249.566406 249.074219 249.789062 249.226562 249.984375 249.417969 C 250.179688 249.613281 250.328125 249.835938 250.433594 250.089844 C 250.539062 250.34375 250.589844 250.605469 250.589844 250.882812 L 250.589844 251.605469 L 250.460938 251.734375 C 249.058594 253.105469 247.574219 254.445312 246.042969 255.714844 C 244.640625 256.882812 243.183594 258.007812 241.714844 259.054688 Z M 242.828125 249.714844 C 242.558594 249.777344 242.335938 249.917969 242.160156 250.136719 C 241.984375 250.351562 241.898438 250.601562 241.898438 250.882812 L 241.898438 257.847656 C 243.117188 256.957031 244.320312 256.015625 245.484375 255.046875 C 246.949219 253.828125 248.371094 252.550781 249.71875 251.238281 L 249.71875 250.882812 C 249.71875 250.722656 249.6875 250.570312 249.625 250.421875 C 249.566406 250.277344 249.480469 250.148438 249.367188 250.035156 C 249.253906 249.921875 249.125 249.835938 248.980469 249.777344 C 248.832031 249.714844 248.679688 249.683594 248.519531 249.683594 L 243.097656 249.683594 C 243.019531 249.683594 242.941406 249.691406 242.867188 249.707031 Z M 242.828125 249.714844 "
        fill-opacity="1" fill-rule="nonzero" />
    <path fill="#ffffff"
        d="M 152.84375 256.582031 C 150.742188 254.925781 148.738281 253.164062 146.832031 251.289062 C 146.835938 250.210938 147.4375 249.332031 148.183594 249.328125 L 154.164062 249.285156 C 154.699219 249.28125 155.167969 249.730469 155.382812 250.382812 C 155.402344 250.429688 155.414062 250.472656 155.429688 250.515625 C 155.492188 250.753906 155.527344 250.996094 155.527344 251.242188 L 155.554688 258.621094 C 154.667969 257.988281 153.800781 257.339844 152.945312 256.667969 C 152.910156 256.636719 152.878906 256.609375 152.84375 256.582031 Z M 152.84375 256.582031 "
        fill-opacity="1" fill-rule="nonzero" />
    <path fill="#140034"
        d="M 155.992188 259.46875 L 155.300781 258.976562 C 154.4375 258.363281 153.554688 257.699219 152.675781 257.007812 C 152.640625 256.980469 152.605469 256.953125 152.566406 256.917969 C 150.457031 255.253906 148.445312 253.484375 146.527344 251.601562 L 146.398438 251.472656 L 146.398438 251.289062 C 146.402344 249.953125 147.183594 248.898438 148.179688 248.890625 L 154.160156 248.847656 L 154.167969 248.847656 C 154.875 248.847656 155.515625 249.394531 155.796875 250.246094 C 155.8125 250.285156 155.828125 250.335938 155.84375 250.386719 C 155.921875 250.667969 155.960938 250.953125 155.960938 251.242188 Z M 147.277344 251.113281 C 149.132812 252.925781 151.078125 254.632812 153.113281 256.238281 L 153.125 256.246094 C 153.15625 256.273438 153.183594 256.296875 153.210938 256.320312 C 153.847656 256.820312 154.484375 257.304688 155.113281 257.765625 L 155.089844 251.246094 C 155.089844 251.039062 155.0625 250.832031 155.007812 250.632812 C 155 250.609375 154.988281 250.574219 154.976562 250.535156 C 154.808594 250.035156 154.492188 249.71875 154.167969 249.71875 L 154.164062 249.71875 L 148.1875 249.765625 C 147.734375 249.769531 147.335938 250.378906 147.277344 251.113281 Z M 147.277344 251.113281 "
        fill-opacity="1" fill-rule="nonzero" />
    <path fill="#140034"
        d="M 215.554688 222.140625 L 215.554688 242.882812 C 215.554688 244.1875 208.574219 249.402344 199.457031 249.402344 C 190.203125 249.402344 183.359375 244.1875 183.359375 242.882812 L 183.359375 222.140625 C 183.359375 221.828125 183.421875 221.527344 183.539062 221.238281 C 183.660156 220.945312 183.832031 220.691406 184.054688 220.46875 C 184.277344 220.246094 184.53125 220.074219 184.824219 219.953125 C 185.113281 219.832031 185.414062 219.773438 185.730469 219.773438 L 213.183594 219.773438 C 213.5 219.773438 213.800781 219.832031 214.089844 219.953125 C 214.382812 220.074219 214.636719 220.246094 214.859375 220.46875 C 215.082031 220.6875 215.253906 220.945312 215.375 221.234375 C 215.496094 221.527344 215.554688 221.828125 215.554688 222.140625 Z M 215.554688 222.140625 "
        fill-opacity="1" fill-rule="nonzero" />
    <path fill="#140034"
        d="M 199.457031 249.835938 C 189.96875 249.835938 182.921875 244.511719 182.921875 242.882812 L 182.921875 222.140625 C 182.921875 221.527344 183.105469 220.972656 183.472656 220.476562 C 183.738281 220.121094 184.070312 219.839844 184.464844 219.640625 C 184.863281 219.4375 185.285156 219.335938 185.730469 219.335938 L 213.183594 219.335938 C 213.558594 219.335938 213.914062 219.40625 214.257812 219.550781 C 214.601562 219.691406 214.90625 219.894531 215.167969 220.160156 C 215.433594 220.421875 215.632812 220.726562 215.777344 221.070312 C 215.917969 221.414062 215.992188 221.769531 215.992188 222.140625 L 215.992188 242.882812 C 215.992188 244.585938 208.550781 249.835938 199.457031 249.835938 Z M 185.730469 220.207031 C 185.078125 220.210938 184.558594 220.472656 184.171875 220.996094 C 183.917969 221.335938 183.792969 221.71875 183.792969 222.140625 L 183.792969 242.882812 C 183.878906 243.925781 190.386719 248.964844 199.457031 248.964844 C 208.300781 248.964844 215.023438 243.890625 215.117188 242.878906 L 215.117188 222.140625 C 215.117188 221.886719 215.070312 221.640625 214.972656 221.402344 C 214.871094 221.164062 214.734375 220.957031 214.550781 220.777344 C 214.371094 220.59375 214.160156 220.453125 213.925781 220.355469 C 213.6875 220.257812 213.441406 220.207031 213.183594 220.207031 Z M 185.730469 220.207031 "
        fill-opacity="1" fill-rule="nonzero" />
    <path fill="#140034"
        d="M 236.296875 179.871094 L 232.789062 179.871094 C 232.789062 159.640625 217.835938 143.183594 199.457031 143.183594 C 181.078125 143.183594 166.125 159.640625 166.125 179.871094 L 162.617188 179.871094 C 162.617188 169.128906 166.4375 159.027344 173.367188 151.421875 C 180.328125 143.78125 189.59375 139.574219 199.457031 139.574219 C 209.320312 139.574219 218.582031 143.78125 225.546875 151.421875 C 232.476562 159.027344 236.296875 169.128906 236.296875 179.871094 Z M 236.296875 179.871094 "
        fill-opacity="1" fill-rule="nonzero" />
    <path fill="#140034"
        d="M 236.730469 180.308594 L 232.351562 180.308594 L 232.351562 179.871094 C 232.351562 159.882812 217.59375 143.617188 199.457031 143.617188 C 181.320312 143.617188 166.5625 159.882812 166.5625 179.871094 L 166.5625 180.308594 L 162.183594 180.308594 L 162.183594 179.871094 C 162.183594 169.019531 166.039062 158.8125 173.046875 151.125 C 180.089844 143.398438 189.472656 139.140625 199.457031 139.140625 C 209.441406 139.140625 218.824219 143.398438 225.867188 151.125 C 232.875 158.8125 236.730469 169.023438 236.730469 179.871094 Z M 233.222656 179.433594 L 235.855469 179.433594 C 235.753906 168.964844 231.988281 159.136719 225.222656 151.714844 C 218.34375 144.167969 209.195312 140.011719 199.457031 140.011719 C 189.71875 140.011719 180.570312 144.167969 173.691406 151.714844 C 166.925781 159.136719 163.15625 168.964844 163.054688 179.433594 L 165.691406 179.433594 C 165.90625 159.164062 180.972656 142.746094 199.457031 142.746094 C 217.941406 142.746094 233.007812 159.164062 233.222656 179.433594 Z M 233.222656 179.433594 "
        fill-opacity="1" fill-rule="nonzero" />
    <path fill="#ffffff"
        d="M 237.285156 187.082031 C 237.289062 190.132812 236.925781 193.140625 236.199219 196.105469 C 235.472656 199.070312 234.402344 201.902344 232.988281 204.605469 C 226.667969 216.671875 214.023438 228.859375 199.457031 228.859375 C 185.195312 228.859375 172.777344 217.015625 166.332031 205.359375 C 165.984375 204.730469 165.65625 204.089844 165.34375 203.441406 C 165.035156 202.796875 164.742188 202.140625 164.46875 201.472656 C 164.195312 200.808594 163.941406 200.136719 163.707031 199.460938 C 163.472656 198.78125 163.253906 198.09375 163.058594 197.402344 C 162.863281 196.710938 162.6875 196.015625 162.53125 195.316406 C 162.375 194.613281 162.238281 193.910156 162.121094 193.199219 C 162.003906 192.492188 161.910156 191.777344 161.835938 191.0625 C 161.757812 190.351562 161.703125 189.632812 161.667969 188.914062 C 161.632812 188.199219 161.617188 187.480469 161.625 186.761719 C 161.632812 186.042969 161.65625 185.324219 161.703125 184.609375 C 161.75 183.890625 161.820312 183.175781 161.90625 182.464844 C 161.996094 181.75 162.101562 181.039062 162.230469 180.332031 C 162.359375 179.625 162.507812 178.921875 162.675781 178.226562 C 162.84375 177.527344 163.03125 176.832031 163.238281 176.144531 C 163.445312 175.457031 163.675781 174.777344 163.921875 174.101562 C 164.167969 173.425781 164.433594 172.757812 164.71875 172.097656 C 165.003906 171.441406 165.304688 170.789062 165.628906 170.144531 C 165.949219 169.503906 166.289062 168.871094 166.644531 168.246094 C 167.003906 167.625 167.378906 167.011719 167.773438 166.410156 C 168.164062 165.808594 168.574219 165.21875 169 164.640625 C 169.425781 164.0625 169.867188 163.496094 170.328125 162.941406 C 170.785156 162.390625 171.257812 161.847656 171.75 161.324219 C 172.238281 160.796875 172.742188 160.285156 173.261719 159.789062 C 173.777344 159.289062 174.3125 158.808594 174.855469 158.339844 C 175.402344 157.875 175.960938 157.421875 176.535156 156.988281 C 177.105469 156.550781 177.6875 156.132812 178.285156 155.730469 C 178.878906 155.328125 179.484375 154.945312 180.101562 154.578125 C 180.71875 154.207031 181.347656 153.859375 181.984375 153.527344 C 182.621094 153.195312 183.269531 152.882812 183.925781 152.585938 C 184.578125 152.292969 185.242188 152.015625 185.914062 151.757812 C 186.585938 151.5 187.261719 151.265625 187.945312 151.046875 C 188.628906 150.828125 189.320312 150.628906 190.015625 150.449219 C 190.710938 150.269531 191.414062 150.109375 192.117188 149.972656 C 192.824219 149.832031 193.53125 149.710938 194.242188 149.613281 C 194.953125 149.515625 195.667969 149.4375 196.382812 149.378906 C 197.101562 149.320312 197.816406 149.28125 198.535156 149.265625 C 199.253906 149.246094 199.972656 149.25 200.691406 149.273438 C 201.410156 149.296875 202.125 149.339844 202.839844 149.40625 C 203.558594 149.46875 204.269531 149.554688 204.980469 149.660156 C 205.691406 149.765625 206.398438 149.890625 207.101562 150.035156 C 207.804688 150.179688 208.503906 150.34375 209.199219 150.53125 C 209.894531 150.714844 210.582031 150.917969 211.265625 151.144531 C 211.949219 151.367188 212.625 151.613281 213.292969 151.875 C 213.960938 152.136719 214.621094 152.417969 215.273438 152.71875 C 215.925781 153.019531 216.570312 153.339844 217.203125 153.675781 C 217.839844 154.011719 218.464844 154.367188 219.078125 154.742188 C 219.691406 155.113281 220.296875 155.503906 220.886719 155.910156 C 221.480469 156.316406 222.058594 156.742188 222.628906 157.183594 C 223.195312 157.621094 223.75 158.078125 224.292969 158.550781 C 224.835938 159.019531 225.363281 159.507812 225.875 160.011719 C 226.390625 160.511719 226.890625 161.027344 227.375 161.558594 C 227.859375 162.089844 228.328125 162.632812 228.78125 163.1875 C 229.238281 163.746094 229.675781 164.316406 230.09375 164.898438 C 230.515625 165.480469 230.921875 166.074219 231.308594 166.679688 C 231.695312 167.285156 232.066406 167.898438 232.417969 168.523438 C 232.769531 169.152344 233.105469 169.785156 233.421875 170.433594 C 233.738281 171.078125 234.035156 171.730469 234.316406 172.394531 C 234.59375 173.054688 234.855469 173.726562 235.09375 174.402344 C 235.335938 175.078125 235.558594 175.761719 235.757812 176.453125 C 235.960938 177.140625 236.144531 177.835938 236.304688 178.535156 C 236.46875 179.234375 236.609375 179.941406 236.730469 180.648438 C 236.855469 181.355469 236.957031 182.066406 237.039062 182.78125 C 237.121094 183.496094 237.179688 184.210938 237.222656 184.925781 C 237.261719 185.644531 237.285156 186.363281 237.285156 187.082031 Z M 237.285156 187.082031 "
        fill-opacity="1" fill-rule="nonzero" />
    <path fill="#140034"
        d="M 199.457031 229.292969 C 184.40625 229.292969 172 216.515625 165.949219 205.570312 C 165.550781 204.847656 165.179688 204.117188 164.828125 203.371094 C 164.480469 202.628906 164.152344 201.871094 163.851562 201.105469 C 163.550781 200.339844 163.273438 199.566406 163.023438 198.785156 C 162.773438 198 162.546875 197.210938 162.347656 196.410156 C 162.144531 195.613281 161.972656 194.808594 161.824219 194 C 161.675781 193.191406 161.554688 192.378906 161.457031 191.5625 C 161.359375 190.746094 161.292969 189.925781 161.25 189.105469 C 161.203125 188.28125 161.1875 187.460938 161.199219 186.636719 C 161.207031 185.816406 161.246094 184.992188 161.308594 184.171875 C 161.371094 183.351562 161.460938 182.535156 161.574219 181.722656 C 161.691406 180.90625 161.832031 180.097656 162 179.292969 C 162.167969 178.488281 162.363281 177.6875 162.582031 176.894531 C 162.800781 176.101562 163.046875 175.316406 163.316406 174.539062 C 163.585938 173.761719 163.878906 172.996094 164.199219 172.238281 C 164.519531 171.480469 164.863281 170.730469 165.230469 169.996094 C 165.597656 169.261719 165.988281 168.535156 166.402344 167.824219 C 166.816406 167.117188 167.253906 166.417969 167.714844 165.734375 C 168.171875 165.054688 168.652344 164.386719 169.15625 163.734375 C 169.65625 163.082031 170.179688 162.449219 170.722656 161.832031 C 171.265625 161.214844 171.828125 160.613281 172.410156 160.03125 C 172.992188 159.449219 173.59375 158.886719 174.210938 158.347656 C 174.832031 157.804688 175.464844 157.28125 176.117188 156.777344 C 176.769531 156.277344 177.4375 155.796875 178.117188 155.339844 C 178.800781 154.878906 179.5 154.441406 180.210938 154.027344 C 180.921875 153.613281 181.644531 153.226562 182.378906 152.859375 C 183.117188 152.492188 183.863281 152.148438 184.621094 151.828125 C 185.378906 151.507812 186.148438 151.214844 186.925781 150.945312 C 187.703125 150.675781 188.488281 150.433594 189.28125 150.214844 C 190.074219 149.996094 190.875 149.800781 191.679688 149.632812 C 192.484375 149.46875 193.292969 149.324219 194.109375 149.210938 C 194.921875 149.097656 195.742188 149.007812 196.5625 148.945312 C 197.382812 148.882812 198.203125 148.847656 199.027344 148.835938 C 199.847656 148.828125 200.671875 148.84375 201.492188 148.890625 C 202.3125 148.933594 203.132812 149.003906 203.949219 149.101562 C 204.765625 149.195312 205.578125 149.320312 206.386719 149.46875 C 207.199219 149.617188 208 149.792969 208.796875 149.992188 C 209.597656 150.195312 210.386719 150.421875 211.171875 150.671875 C 211.953125 150.925781 212.726562 151.199219 213.492188 151.503906 C 214.257812 151.804688 215.011719 152.128906 215.757812 152.480469 C 216.5 152.832031 217.234375 153.207031 217.953125 153.601562 C 218.675781 154 219.378906 154.421875 220.074219 154.863281 C 220.765625 155.308594 221.445312 155.773438 222.109375 156.257812 C 222.769531 156.746094 223.417969 157.253906 224.046875 157.785156 C 224.679688 158.3125 225.289062 158.859375 225.886719 159.429688 C 226.480469 159.996094 227.054688 160.582031 227.613281 161.1875 C 228.171875 161.792969 228.707031 162.417969 229.222656 163.058594 C 229.742188 163.695312 230.238281 164.351562 230.710938 165.023438 C 231.1875 165.695312 231.636719 166.382812 232.070312 167.085938 C 232.5 167.785156 232.90625 168.5 233.289062 169.226562 C 233.675781 169.953125 234.035156 170.695312 234.371094 171.445312 C 234.707031 172.195312 235.019531 172.957031 235.308594 173.726562 C 235.59375 174.496094 235.855469 175.277344 236.09375 176.066406 C 236.332031 176.851562 236.542969 177.648438 236.730469 178.449219 C 236.914062 179.25 237.074219 180.054688 237.207031 180.867188 C 237.34375 181.679688 237.449219 182.496094 237.53125 183.3125 C 237.613281 184.132812 237.667969 184.953125 237.695312 185.773438 C 237.726562 186.597656 237.726562 187.417969 237.703125 188.242188 C 237.679688 189.0625 237.625 189.882812 237.550781 190.703125 C 237.472656 191.523438 237.367188 192.335938 237.238281 193.148438 C 237.109375 193.960938 236.953125 194.769531 236.769531 195.570312 C 236.585938 196.375 236.378906 197.167969 236.144531 197.957031 C 235.914062 198.746094 235.652344 199.527344 235.371094 200.300781 C 235.085938 201.070312 234.777344 201.832031 234.445312 202.585938 C 234.109375 203.339844 233.753906 204.078125 233.375 204.808594 C 229.972656 211.304688 225.074219 217.265625 219.585938 221.601562 C 213.207031 226.632812 206.246094 229.292969 199.457031 229.292969 Z M 199.457031 149.691406 C 198.648438 149.691406 197.839844 149.71875 197.035156 149.769531 C 196.226562 149.824219 195.421875 149.902344 194.621094 150.007812 C 193.820312 150.109375 193.023438 150.242188 192.230469 150.398438 C 191.4375 150.554688 190.648438 150.738281 189.867188 150.945312 C 189.085938 151.152344 188.3125 151.382812 187.546875 151.640625 C 186.78125 151.898438 186.023438 152.183594 185.273438 152.488281 C 184.527344 152.796875 183.789062 153.125 183.0625 153.480469 C 182.335938 153.835938 181.621094 154.210938 180.921875 154.613281 C 180.21875 155.015625 179.53125 155.4375 178.855469 155.882812 C 178.179688 156.328125 177.523438 156.796875 176.878906 157.285156 C 176.234375 157.773438 175.605469 158.28125 174.992188 158.808594 C 174.382812 159.339844 173.789062 159.886719 173.214844 160.453125 C 172.636719 161.023438 172.082031 161.609375 171.542969 162.210938 C 171.003906 162.816406 170.488281 163.433594 169.988281 164.074219 C 169.492188 164.710938 169.015625 165.363281 168.5625 166.03125 C 168.105469 166.699219 167.671875 167.378906 167.261719 168.078125 C 166.851562 168.773438 166.460938 169.480469 166.097656 170.203125 C 165.730469 170.921875 165.390625 171.65625 165.074219 172.398438 C 164.753906 173.144531 164.460938 173.894531 164.195312 174.660156 C 163.925781 175.421875 163.679688 176.191406 163.460938 176.96875 C 163.242188 177.746094 163.050781 178.53125 162.882812 179.324219 C 162.714844 180.113281 162.574219 180.910156 162.457031 181.710938 C 162.339844 182.507812 162.25 183.3125 162.183594 184.117188 C 162.121094 184.921875 162.082031 185.730469 162.070312 186.539062 C 162.058594 187.347656 162.074219 188.15625 162.113281 188.960938 C 162.152344 189.769531 162.21875 190.574219 162.3125 191.378906 C 162.40625 192.179688 162.523438 192.980469 162.667969 193.777344 C 162.8125 194.570312 162.984375 195.363281 163.179688 196.144531 C 163.375 196.929688 163.59375 197.707031 163.839844 198.476562 C 164.085938 199.246094 164.359375 200.007812 164.652344 200.761719 C 164.949219 201.515625 165.269531 202.257812 165.613281 202.988281 C 165.957031 203.71875 166.324219 204.4375 166.714844 205.148438 C 172.648438 215.882812 184.789062 228.421875 199.457031 228.421875 C 213.664062 228.421875 226.339844 216.359375 232.601562 204.402344 C 232.972656 203.695312 233.316406 202.976562 233.640625 202.242188 C 233.964844 201.511719 234.265625 200.773438 234.542969 200.023438 C 234.820312 199.269531 235.070312 198.511719 235.300781 197.746094 C 235.527344 196.980469 235.730469 196.207031 235.910156 195.425781 C 236.085938 194.648438 236.242188 193.863281 236.367188 193.074219 C 236.496094 192.285156 236.601562 191.492188 236.675781 190.695312 C 236.753906 189.898438 236.804688 189.101562 236.832031 188.304688 C 236.859375 187.503906 236.859375 186.703125 236.832031 185.90625 C 236.808594 185.105469 236.757812 184.308594 236.679688 183.511719 C 236.605469 182.714844 236.5 181.921875 236.375 181.132812 C 236.246094 180.34375 236.09375 179.558594 235.917969 178.78125 C 235.738281 178 235.535156 177.226562 235.308594 176.460938 C 235.082031 175.695312 234.832031 174.933594 234.554688 174.183594 C 234.277344 173.433594 233.980469 172.691406 233.65625 171.960938 C 233.332031 171.230469 232.984375 170.511719 232.617188 169.800781 C 232.246094 169.09375 231.855469 168.394531 231.441406 167.710938 C 231.027344 167.027344 230.589844 166.355469 230.132812 165.703125 C 229.675781 165.046875 229.199219 164.40625 228.699219 163.777344 C 228.199219 163.152344 227.683594 162.546875 227.144531 161.953125 C 226.609375 161.359375 226.050781 160.785156 225.476562 160.230469 C 224.902344 159.671875 224.3125 159.136719 223.703125 158.617188 C 223.09375 158.097656 222.46875 157.601562 221.828125 157.121094 C 221.1875 156.644531 220.53125 156.1875 219.863281 155.75 C 219.191406 155.3125 218.507812 154.898438 217.8125 154.507812 C 217.113281 154.113281 216.40625 153.742188 215.6875 153.398438 C 214.964844 153.050781 214.234375 152.726562 213.492188 152.425781 C 212.753906 152.125 212.003906 151.851562 211.242188 151.597656 C 210.484375 151.34375 209.71875 151.117188 208.945312 150.914062 C 208.171875 150.710938 207.390625 150.535156 206.605469 150.382812 C 205.824219 150.226562 205.035156 150.101562 204.238281 150 C 203.445312 149.894531 202.652344 149.820312 201.851562 149.769531 C 201.054688 149.714844 200.257812 149.691406 199.457031 149.691406 Z M 199.457031 149.691406 "
        fill-opacity="1" fill-rule="nonzero" />
    <path fill="#140034"
        d="M 245.382812 187.082031 C 245.382812 200.214844 238.003906 210.882812 228.847656 211.078125 C 228.765625 211.082031 228.679688 211.082031 228.59375 211.082031 L 228.59375 163.082031 C 229.046875 163.082031 229.496094 163.105469 229.945312 163.160156 C 238.585938 164.144531 245.382812 174.480469 245.382812 187.082031 Z M 245.382812 187.082031 "
        fill-opacity="1" fill-rule="nonzero" />
    <path fill="#140034"
        d="M 228.59375 211.515625 L 228.15625 211.515625 L 228.15625 162.644531 L 228.59375 162.644531 C 229.0625 162.644531 229.53125 162.671875 229.996094 162.726562 C 234.320312 163.21875 238.324219 165.988281 241.269531 170.527344 C 244.203125 175.046875 245.816406 180.925781 245.816406 187.082031 C 245.816406 193.515625 244.074219 199.585938 240.90625 204.179688 C 237.710938 208.808594 233.433594 211.414062 228.859375 211.511719 C 228.777344 211.515625 228.683594 211.515625 228.59375 211.515625 Z M 229.027344 163.527344 L 229.027344 210.636719 C 237.828125 210.292969 244.945312 199.785156 244.945312 187.082031 C 244.945312 174.871094 238.335938 164.554688 229.898438 163.59375 C 229.613281 163.558594 229.320312 163.539062 229.027344 163.527344 Z M 229.027344 163.527344 "
        fill-opacity="1" fill-rule="nonzero" />
    <path fill="#140034"
        d="M 225.847656 172.449219 L 225.847656 197.890625 C 225.847656 201.246094 221.671875 203.96875 216.519531 203.96875 L 182.390625 203.96875 C 177.242188 203.96875 173.0625 201.246094 173.0625 197.890625 L 173.0625 172.449219 C 180.230469 168.585938 189.425781 166.265625 199.457031 166.265625 C 209.484375 166.265625 218.683594 168.585938 225.847656 172.449219 Z M 225.847656 172.449219 "
        fill-opacity="1" fill-rule="nonzero" />
    <path fill="#140034"
        d="M 216.519531 204.347656 L 182.390625 204.347656 C 177.039062 204.347656 172.683594 201.453125 172.683594 197.890625 L 172.683594 172.222656 L 172.882812 172.117188 C 180.339844 168.097656 189.777344 165.886719 199.457031 165.886719 C 209.136719 165.886719 218.574219 168.097656 226.03125 172.117188 L 226.226562 172.222656 L 226.226562 197.890625 C 226.226562 201.453125 221.875 204.347656 216.519531 204.347656 Z M 173.441406 172.675781 L 173.441406 197.890625 C 173.441406 201.035156 177.457031 203.589844 182.390625 203.589844 L 216.519531 203.589844 C 221.457031 203.589844 225.46875 201.035156 225.46875 197.890625 L 225.46875 172.675781 C 218.15625 168.785156 208.929688 166.644531 199.457031 166.644531 C 189.984375 166.644531 180.757812 168.785156 173.441406 172.675781 Z M 173.441406 172.675781 "
        fill-opacity="1" fill-rule="nonzero" />
    <path fill="#140034"
        d="M 153.335938 187.082031 C 153.335938 200.214844 160.714844 210.882812 169.867188 211.078125 C 169.953125 211.082031 170.035156 211.082031 170.125 211.082031 L 170.125 163.082031 C 169.671875 163.082031 169.21875 163.105469 168.769531 163.160156 C 160.132812 164.144531 153.335938 174.480469 153.335938 187.082031 Z M 153.335938 187.082031 "
        fill-opacity="1" fill-rule="nonzero" />
    <path fill="#140034"
        d="M 170.558594 211.515625 L 170.125 211.515625 C 170.03125 211.515625 169.9375 211.515625 169.847656 211.511719 C 165.285156 211.414062 161.003906 208.808594 157.808594 204.179688 C 154.640625 199.585938 152.898438 193.515625 152.898438 187.082031 C 152.898438 180.925781 154.511719 175.046875 157.445312 170.527344 C 160.390625 165.988281 164.394531 163.21875 168.71875 162.726562 C 169.1875 162.671875 169.65625 162.644531 170.125 162.644531 L 170.558594 162.644531 Z M 169.6875 163.527344 C 169.394531 163.539062 169.105469 163.558594 168.820312 163.59375 C 160.378906 164.554688 153.769531 174.871094 153.769531 187.082031 C 153.769531 199.792969 160.894531 210.300781 169.6875 210.636719 Z M 169.6875 163.527344 "
        fill-opacity="1" fill-rule="nonzero" />
    <path fill="#140034"
        d="M 194.066406 222.339844 L 179.253906 221.5625 C 178.308594 221.511719 177.390625 221.328125 176.5 221.011719 C 175.609375 220.695312 174.78125 220.253906 174.015625 219.695312 C 173.253906 219.136719 172.585938 218.484375 172.011719 217.730469 C 171.441406 216.976562 170.988281 216.15625 170.652344 215.273438 L 165.453125 201.496094 C 165.363281 201.25 165.226562 201.03125 165.046875 200.839844 C 164.867188 200.648438 164.65625 200.5 164.417969 200.390625 C 164.179688 200.28125 163.929688 200.226562 163.667969 200.214844 C 163.40625 200.207031 163.152344 200.25 162.90625 200.34375 C 162.664062 200.433594 162.445312 200.570312 162.253906 200.75 C 162.0625 200.929688 161.914062 201.140625 161.804688 201.378906 C 161.695312 201.617188 161.640625 201.867188 161.628906 202.128906 C 161.621094 202.390625 161.664062 202.644531 161.757812 202.890625 L 170.238281 222.613281 L 170.242188 222.625 L 170.25 222.640625 C 170.269531 222.691406 170.289062 222.742188 170.3125 222.789062 C 170.316406 222.800781 170.324219 222.808594 170.332031 222.820312 C 170.351562 222.863281 170.375 222.90625 170.398438 222.945312 C 170.40625 222.960938 170.414062 222.972656 170.421875 222.988281 C 170.445312 223.027344 170.472656 223.0625 170.5 223.101562 C 170.507812 223.113281 170.515625 223.121094 170.523438 223.132812 C 170.554688 223.175781 170.585938 223.214844 170.621094 223.253906 C 170.625 223.257812 170.628906 223.265625 170.632812 223.269531 C 170.714844 223.359375 170.800781 223.4375 170.894531 223.511719 C 170.910156 223.519531 170.921875 223.53125 170.9375 223.539062 C 170.96875 223.5625 171.003906 223.585938 171.035156 223.609375 C 171.054688 223.621094 171.070312 223.632812 171.089844 223.640625 C 171.125 223.664062 171.160156 223.683594 171.195312 223.699219 C 171.214844 223.710938 171.230469 223.71875 171.25 223.726562 C 171.296875 223.75 171.34375 223.769531 171.390625 223.789062 C 171.414062 223.796875 171.433594 223.804688 171.457031 223.8125 C 171.492188 223.824219 171.527344 223.835938 171.566406 223.84375 C 171.585938 223.851562 171.605469 223.855469 171.625 223.863281 C 171.679688 223.875 171.734375 223.886719 171.789062 223.894531 L 171.792969 223.898438 C 171.859375 223.90625 171.921875 223.914062 171.984375 223.917969 L 171.996094 223.917969 L 197.476562 226.484375 C 197.511719 226.488281 193.992188 226.289062 194.027344 226.289062 C 194.289062 226.289062 194.539062 226.238281 194.78125 226.140625 C 195.023438 226.039062 195.238281 225.894531 195.421875 225.710938 C 195.609375 225.523438 195.75 225.3125 195.851562 225.070312 C 195.949219 224.828125 196 224.574219 196 224.3125 C 196 224.292969 196 224.269531 196 224.25 C 195.984375 224 195.929688 223.757812 195.824219 223.527344 C 195.722656 223.300781 195.582031 223.097656 195.402344 222.921875 C 195.222656 222.742188 195.019531 222.605469 194.789062 222.503906 C 194.558594 222.40625 194.316406 222.347656 194.066406 222.339844 Z M 194.066406 222.339844 "
        fill-opacity="1" fill-rule="nonzero" />
    <path fill="#140034"
        d="M 197.460938 226.921875 C 197.445312 226.921875 195.742188 226.824219 195.722656 226.824219 L 194.539062 226.757812 C 194.367188 226.746094 194.21875 226.738281 194.097656 226.726562 C 194.074219 226.726562 194.050781 226.726562 194.027344 226.726562 L 194.027344 226.714844 C 193.828125 226.6875 193.707031 226.640625 193.644531 226.539062 L 171.9375 224.351562 C 171.855469 224.34375 171.792969 224.335938 171.726562 224.328125 C 171.652344 224.316406 171.585938 224.300781 171.519531 224.285156 L 171.460938 224.269531 C 171.402344 224.253906 171.359375 224.238281 171.3125 224.222656 C 171.28125 224.210938 171.257812 224.203125 171.234375 224.195312 C 171.179688 224.175781 171.121094 224.148438 171.066406 224.121094 L 171.007812 224.09375 C 170.953125 224.066406 170.910156 224.042969 170.867188 224.019531 L 170.800781 223.976562 C 170.757812 223.949219 170.71875 223.921875 170.679688 223.894531 L 170.628906 223.855469 C 170.515625 223.769531 170.410156 223.667969 170.3125 223.5625 C 170.253906 223.496094 170.210938 223.445312 170.175781 223.394531 L 170.144531 223.355469 C 170.113281 223.3125 170.082031 223.265625 170.050781 223.214844 L 170.027344 223.175781 C 169.992188 223.117188 169.964844 223.066406 169.941406 223.015625 C 169.929688 223 169.925781 222.984375 169.917969 222.972656 C 169.890625 222.914062 169.867188 222.855469 169.84375 222.796875 L 169.828125 222.757812 L 161.355469 203.0625 C 161.242188 202.765625 161.1875 202.457031 161.195312 202.136719 C 161.203125 201.816406 161.273438 201.511719 161.402344 201.21875 C 161.53125 200.925781 161.710938 200.667969 161.941406 200.449219 C 162.171875 200.226562 162.4375 200.058594 162.734375 199.945312 C 163.035156 199.828125 163.34375 199.777344 163.664062 199.785156 C 163.980469 199.789062 164.289062 199.859375 164.582031 199.988281 C 164.871094 200.117188 165.128906 200.296875 165.351562 200.527344 C 165.570312 200.757812 165.738281 201.023438 165.855469 201.320312 L 165.863281 201.339844 L 171.0625 215.117188 C 171.378906 215.964844 171.8125 216.746094 172.359375 217.464844 C 172.90625 218.183594 173.546875 218.8125 174.273438 219.34375 C 175.003906 219.878906 175.796875 220.296875 176.648438 220.601562 C 177.5 220.902344 178.375 221.078125 179.277344 221.128906 L 194.089844 221.902344 C 194.394531 221.917969 194.6875 221.984375 194.96875 222.109375 C 195.246094 222.230469 195.496094 222.402344 195.714844 222.617188 C 195.929688 222.832031 196.101562 223.078125 196.226562 223.359375 C 196.351562 223.636719 196.417969 223.929688 196.433594 224.238281 C 196.457031 224.859375 196.265625 225.410156 195.855469 225.882812 L 197.519531 226.050781 Z M 172.035156 223.484375 L 172.039062 223.484375 L 194.574219 225.753906 C 194.878906 225.636719 195.125 225.441406 195.308594 225.167969 C 195.488281 224.894531 195.574219 224.589844 195.5625 224.261719 C 195.550781 224.066406 195.503906 223.878906 195.421875 223.699219 C 195.34375 223.519531 195.230469 223.363281 195.089844 223.226562 C 194.949219 223.085938 194.789062 222.980469 194.609375 222.902344 C 194.429688 222.824219 194.238281 222.78125 194.042969 222.773438 L 179.230469 222 C 178.246094 221.945312 177.285156 221.753906 176.355469 221.421875 C 175.421875 221.089844 174.558594 220.632812 173.761719 220.050781 C 172.960938 219.464844 172.265625 218.78125 171.664062 217.992188 C 171.066406 217.207031 170.59375 216.351562 170.246094 215.425781 L 165.046875 201.648438 C 164.972656 201.457031 164.867188 201.289062 164.730469 201.140625 C 164.589844 200.992188 164.429688 200.875 164.242188 200.789062 C 164.058594 200.703125 163.863281 200.660156 163.660156 200.652344 C 163.457031 200.644531 163.257812 200.675781 163.066406 200.746094 C 162.875 200.820312 162.707031 200.921875 162.558594 201.0625 C 162.40625 201.199219 162.289062 201.363281 162.207031 201.546875 C 162.121094 201.734375 162.074219 201.929688 162.066406 202.132812 C 162.058594 202.335938 162.089844 202.53125 162.160156 202.722656 L 162.164062 202.734375 L 170.652344 222.46875 C 170.675781 222.527344 170.691406 222.566406 170.707031 222.601562 L 170.722656 222.628906 C 170.738281 222.664062 170.753906 222.695312 170.773438 222.726562 L 170.792969 222.753906 C 170.8125 222.789062 170.832031 222.816406 170.851562 222.84375 L 170.871094 222.871094 C 170.894531 222.902344 170.921875 222.933594 170.949219 222.964844 C 171.011719 223.039062 171.082031 223.105469 171.160156 223.164062 L 171.195312 223.1875 C 171.21875 223.207031 171.246094 223.222656 171.269531 223.242188 L 171.316406 223.269531 C 171.339844 223.28125 171.367188 223.296875 171.398438 223.3125 L 171.4375 223.335938 C 171.472656 223.351562 171.511719 223.367188 171.546875 223.382812 L 171.585938 223.394531 C 171.625 223.410156 171.65625 223.417969 171.683594 223.425781 L 171.726562 223.4375 C 171.773438 223.449219 171.816406 223.457031 171.859375 223.464844 C 171.910156 223.472656 171.960938 223.476562 172.011719 223.480469 Z M 172.035156 223.484375 "
        fill-opacity="1" fill-rule="nonzero" />
    <path fill="#140034"
        d="M 198.566406 223.722656 C 198.566406 224.035156 198.53125 224.34375 198.457031 224.648438 C 198.382812 224.953125 198.277344 225.246094 198.132812 225.523438 C 197.992188 225.804688 197.816406 226.0625 197.613281 226.296875 C 197.410156 226.535156 197.179688 226.746094 196.925781 226.929688 C 196.671875 227.113281 196.398438 227.261719 196.109375 227.382812 C 195.820312 227.5 195.519531 227.582031 195.210938 227.628906 C 194.898438 227.675781 194.589844 227.6875 194.277344 227.660156 C 193.964844 227.632812 193.660156 227.570312 193.363281 227.46875 C 193.066406 227.371094 192.785156 227.238281 192.519531 227.070312 C 192.253906 226.90625 192.011719 226.710938 191.792969 226.488281 C 191.574219 226.261719 191.382812 226.015625 191.222656 225.746094 C 191.0625 225.480469 190.9375 225.195312 190.84375 224.894531 C 190.75 224.597656 190.695312 224.289062 190.675781 223.976562 C 190.652344 223.664062 190.671875 223.355469 190.722656 223.046875 C 190.777344 222.738281 190.867188 222.441406 190.992188 222.152344 C 191.117188 221.863281 191.273438 221.597656 191.460938 221.347656 C 191.648438 221.097656 191.863281 220.871094 192.105469 220.671875 C 192.347656 220.472656 192.609375 220.304688 192.890625 220.167969 C 193.171875 220.03125 193.46875 219.929688 193.773438 219.863281 C 194.078125 219.796875 194.390625 219.765625 194.703125 219.773438 C 195.015625 219.78125 195.324219 219.824219 195.625 219.902344 C 195.929688 219.984375 196.21875 220.097656 196.492188 220.246094 C 196.769531 220.394531 197.023438 220.574219 197.257812 220.785156 C 197.488281 220.992188 197.695312 221.226562 197.871094 221.484375 C 198.335938 222.160156 198.566406 222.90625 198.566406 223.722656 Z M 198.566406 223.722656 "
        fill-opacity="1" fill-rule="nonzero" />
    <path fill="#140034"
        d="M 194.617188 228.109375 C 194.425781 228.109375 194.234375 228.097656 194.042969 228.070312 C 193.855469 228.046875 193.667969 228.007812 193.480469 227.960938 C 193.296875 227.910156 193.117188 227.847656 192.9375 227.777344 C 192.761719 227.703125 192.589844 227.617188 192.425781 227.523438 C 192.257812 227.425781 192.097656 227.320312 191.945312 227.203125 C 191.792969 227.085938 191.652344 226.960938 191.515625 226.824219 C 191.378906 226.6875 191.253906 226.546875 191.136719 226.394531 C 191.019531 226.242188 190.914062 226.082031 190.816406 225.914062 C 190.722656 225.75 190.636719 225.578125 190.5625 225.402344 C 190.492188 225.222656 190.429688 225.042969 190.378906 224.859375 C 190.332031 224.671875 190.292969 224.484375 190.269531 224.296875 C 190.242188 224.105469 190.230469 223.914062 190.230469 223.722656 C 190.230469 223.53125 190.242188 223.339844 190.269531 223.148438 C 190.292969 222.960938 190.332031 222.773438 190.378906 222.585938 C 190.429688 222.402344 190.492188 222.222656 190.566406 222.042969 C 190.636719 221.867188 190.722656 221.695312 190.816406 221.527344 C 190.914062 221.363281 191.019531 221.203125 191.136719 221.050781 C 191.253906 220.898438 191.378906 220.757812 191.515625 220.621094 C 191.652344 220.484375 191.792969 220.359375 191.945312 220.242188 C 192.097656 220.125 192.257812 220.019531 192.425781 219.921875 C 192.589844 219.828125 192.761719 219.742188 192.9375 219.667969 C 193.117188 219.597656 193.296875 219.535156 193.480469 219.484375 C 193.667969 219.4375 193.855469 219.398438 194.042969 219.375 C 194.234375 219.347656 194.425781 219.335938 194.617188 219.335938 C 194.808594 219.335938 195 219.347656 195.191406 219.375 C 195.378906 219.398438 195.566406 219.4375 195.753906 219.484375 C 195.9375 219.535156 196.117188 219.597656 196.296875 219.667969 C 196.472656 219.742188 196.644531 219.828125 196.8125 219.921875 C 196.976562 220.019531 197.136719 220.125 197.289062 220.242188 C 197.441406 220.359375 197.582031 220.484375 197.71875 220.621094 C 197.855469 220.757812 197.980469 220.898438 198.097656 221.050781 C 198.214844 221.203125 198.320312 221.363281 198.417969 221.527344 C 198.511719 221.695312 198.597656 221.867188 198.671875 222.042969 C 198.742188 222.222656 198.804688 222.402344 198.855469 222.585938 C 198.90625 222.773438 198.941406 222.960938 198.964844 223.148438 C 198.992188 223.339844 199.003906 223.53125 199.003906 223.722656 C 199.003906 223.914062 198.992188 224.105469 198.964844 224.296875 C 198.941406 224.484375 198.90625 224.671875 198.855469 224.859375 C 198.804688 225.042969 198.742188 225.222656 198.671875 225.402344 C 198.597656 225.578125 198.511719 225.75 198.417969 225.914062 C 198.320312 226.082031 198.214844 226.242188 198.097656 226.394531 C 197.980469 226.546875 197.855469 226.6875 197.71875 226.824219 C 197.582031 226.960938 197.441406 227.085938 197.289062 227.203125 C 197.136719 227.320312 196.976562 227.425781 196.8125 227.523438 C 196.644531 227.617188 196.472656 227.703125 196.296875 227.777344 C 196.121094 227.847656 195.9375 227.910156 195.753906 227.960938 C 195.566406 228.007812 195.378906 228.046875 195.191406 228.070312 C 195 228.097656 194.808594 228.109375 194.617188 228.109375 Z M 194.617188 220.207031 C 193.910156 220.207031 193.261719 220.402344 192.671875 220.792969 C 192.082031 221.1875 191.652344 221.707031 191.378906 222.359375 C 191.101562 223.011719 191.03125 223.683594 191.164062 224.378906 C 191.296875 225.074219 191.613281 225.675781 192.105469 226.179688 C 192.792969 226.886719 193.628906 227.242188 194.617188 227.238281 C 195.082031 227.238281 195.53125 227.148438 195.960938 226.96875 C 196.394531 226.792969 196.773438 226.539062 197.101562 226.207031 C 197.433594 225.878906 197.6875 225.5 197.863281 225.066406 C 198.042969 224.636719 198.132812 224.1875 198.132812 223.722656 C 198.132812 223.257812 198.042969 222.808594 197.863281 222.378906 C 197.6875 221.945312 197.433594 221.566406 197.101562 221.238281 C 196.773438 220.90625 196.394531 220.652344 195.960938 220.476562 C 195.53125 220.296875 195.082031 220.207031 194.617188 220.207031 Z M 194.617188 220.207031 "
        fill-opacity="1" fill-rule="nonzero" />
    <path fill="#ffffff"
        d="M 171.085938 220.78125 C 168.519531 215.382812 166.324219 209.835938 164.503906 204.140625 L 165.335938 203.875 C 167.144531 209.53125 169.324219 215.042969 171.871094 220.40625 Z M 171.085938 220.78125 "
        fill-opacity="1" fill-rule="nonzero" />
    <path fill="#ffffff"
        d="M 188.574219 223.863281 C 184.027344 223.671875 179.746094 223.300781 174.253906 222.632812 L 174.359375 221.765625 C 179.828125 222.433594 184.089844 222.800781 188.609375 222.992188 Z M 188.574219 223.863281 "
        fill-opacity="1" fill-rule="nonzero" />
    <path fill="#ffffff"
        d="M 191.816406 224.605469 C 191.746094 224.390625 191.703125 224.171875 191.683594 223.949219 C 191.664062 223.722656 191.671875 223.496094 191.703125 223.273438 C 191.738281 223.050781 191.792969 222.832031 191.878906 222.625 C 191.960938 222.414062 192.066406 222.214844 192.195312 222.03125 C 192.324219 221.84375 192.472656 221.675781 192.640625 221.523438 C 192.808594 221.371094 192.992188 221.242188 193.1875 221.132812 C 193.386719 221.023438 193.59375 220.9375 193.8125 220.878906 C 194.03125 220.816406 194.25 220.78125 194.476562 220.773438 L 194.515625 221.644531 C 194.355469 221.652344 194.199219 221.675781 194.046875 221.71875 C 193.894531 221.761719 193.75 221.820312 193.609375 221.898438 C 193.472656 221.972656 193.34375 222.066406 193.226562 222.171875 C 193.105469 222.277344 193.003906 222.398438 192.914062 222.527344 C 192.820312 222.65625 192.746094 222.796875 192.6875 222.945312 C 192.628906 223.089844 192.589844 223.242188 192.566406 223.402344 C 192.542969 223.558594 192.539062 223.714844 192.550781 223.875 C 192.566406 224.03125 192.597656 224.1875 192.644531 224.335938 Z M 191.816406 224.605469 "
        fill-opacity="1" fill-rule="nonzero" />
    <path fill="#fcad06"
        d="M 190.574219 184.980469 C 190.921875 185.328125 191.234375 185.707031 191.507812 186.117188 C 191.78125 186.527344 192.011719 186.957031 192.203125 187.414062 C 192.390625 187.871094 192.53125 188.339844 192.628906 188.820312 C 192.726562 189.304688 192.773438 189.792969 192.773438 190.285156 C 192.773438 190.78125 192.726562 191.265625 192.628906 191.75 C 192.53125 192.234375 192.390625 192.703125 192.203125 193.160156 C 192.011719 193.613281 191.78125 194.046875 191.507812 194.457031 C 191.234375 194.867188 190.921875 195.246094 190.574219 195.59375 C 190.226562 195.941406 189.847656 196.253906 189.4375 196.527344 C 189.027344 196.800781 188.59375 197.03125 188.140625 197.222656 C 187.683594 197.410156 187.214844 197.550781 186.730469 197.648438 C 186.246094 197.746094 185.757812 197.792969 185.265625 197.792969 C 184.773438 197.792969 184.285156 197.746094 183.800781 197.648438 C 183.320312 197.550781 182.847656 197.410156 182.394531 197.222656 C 181.9375 197.03125 181.507812 196.800781 181.097656 196.527344 C 180.6875 196.253906 180.308594 195.941406 179.957031 195.59375 C 179.609375 195.246094 179.300781 194.867188 179.027344 194.457031 C 178.75 194.046875 178.519531 193.613281 178.332031 193.160156 C 178.144531 192.703125 178 192.234375 177.90625 191.75 C 177.808594 191.265625 177.761719 190.78125 177.761719 190.285156 C 177.761719 189.792969 177.808594 189.304688 177.90625 188.820312 C 178 188.339844 178.144531 187.871094 178.332031 187.414062 C 178.519531 186.957031 178.75 186.527344 179.027344 186.117188 C 179.300781 185.707031 179.609375 185.328125 179.957031 184.980469 C 180.308594 184.628906 180.6875 184.320312 181.097656 184.046875 C 181.507812 183.773438 181.9375 183.539062 182.394531 183.351562 C 182.847656 183.164062 183.320312 183.019531 183.800781 182.925781 C 184.285156 182.828125 184.773438 182.78125 185.265625 182.78125 C 185.757812 182.78125 186.246094 182.828125 186.730469 182.925781 C 187.214844 183.019531 187.683594 183.164062 188.140625 183.351562 C 188.59375 183.539062 189.027344 183.773438 189.4375 184.046875 C 189.847656 184.320312 190.226562 184.628906 190.574219 184.980469 Z M 190.574219 184.980469 "
        fill-opacity="1" fill-rule="nonzero" />
    <path fill="#140034"
        d="M 185.265625 198.230469 C 184.746094 198.230469 184.230469 198.179688 183.71875 198.074219 C 183.207031 197.972656 182.707031 197.824219 182.226562 197.625 C 181.746094 197.425781 181.289062 197.179688 180.855469 196.890625 C 180.421875 196.601562 180.019531 196.269531 179.652344 195.902344 C 179.28125 195.535156 178.953125 195.132812 178.664062 194.699219 C 178.371094 194.265625 178.128906 193.808594 177.929688 193.324219 C 177.730469 192.84375 177.578125 192.347656 177.476562 191.835938 C 177.375 191.324219 177.324219 190.808594 177.324219 190.285156 C 177.324219 189.765625 177.375 189.25 177.476562 188.738281 C 177.578125 188.226562 177.730469 187.730469 177.929688 187.246094 C 178.128906 186.765625 178.371094 186.308594 178.664062 185.875 C 178.953125 185.441406 179.28125 185.039062 179.652344 184.671875 C 180.019531 184.300781 180.421875 183.972656 180.855469 183.683594 C 181.289062 183.394531 181.746094 183.148438 182.226562 182.949219 C 182.707031 182.75 183.207031 182.597656 183.71875 182.496094 C 184.226562 182.394531 184.746094 182.34375 185.265625 182.34375 C 185.789062 182.34375 186.304688 182.394531 186.816406 182.496094 C 187.328125 182.597656 187.824219 182.75 188.304688 182.949219 C 188.789062 183.148438 189.246094 183.394531 189.679688 183.683594 C 190.113281 183.972656 190.515625 184.300781 190.882812 184.671875 C 191.25 185.039062 191.582031 185.441406 191.871094 185.875 C 192.160156 186.308594 192.40625 186.765625 192.605469 187.246094 C 192.804688 187.730469 192.953125 188.226562 193.054688 188.738281 C 193.15625 189.25 193.207031 189.765625 193.207031 190.285156 C 193.207031 190.808594 193.15625 191.324219 193.054688 191.835938 C 192.953125 192.347656 192.804688 192.84375 192.605469 193.324219 C 192.40625 193.808594 192.160156 194.265625 191.871094 194.699219 C 191.582031 195.132812 191.25 195.535156 190.882812 195.902344 C 190.515625 196.269531 190.113281 196.601562 189.679688 196.890625 C 189.246094 197.179688 188.789062 197.425781 188.304688 197.625 C 187.824219 197.824219 187.328125 197.972656 186.816406 198.074219 C 186.304688 198.179688 185.789062 198.230469 185.265625 198.230469 Z M 185.265625 183.214844 C 184.800781 183.214844 184.34375 183.261719 183.886719 183.351562 C 183.433594 183.441406 182.988281 183.578125 182.5625 183.753906 C 182.132812 183.933594 181.726562 184.148438 181.339844 184.40625 C 180.953125 184.664062 180.59375 184.960938 180.265625 185.289062 C 179.9375 185.617188 179.644531 185.972656 179.386719 186.359375 C 179.128906 186.746094 178.914062 187.152344 178.734375 187.582031 C 178.558594 188.007812 178.421875 188.453125 178.332031 188.90625 C 178.242188 189.363281 178.195312 189.820312 178.195312 190.285156 C 178.195312 190.75 178.242188 191.210938 178.332031 191.664062 C 178.421875 192.121094 178.558594 192.5625 178.734375 192.992188 C 178.914062 193.421875 179.128906 193.828125 179.386719 194.214844 C 179.644531 194.601562 179.9375 194.957031 180.265625 195.285156 C 180.59375 195.613281 180.953125 195.90625 181.339844 196.164062 C 181.722656 196.421875 182.132812 196.640625 182.5625 196.816406 C 182.988281 196.996094 183.433594 197.128906 183.886719 197.21875 C 184.34375 197.3125 184.800781 197.355469 185.265625 197.355469 C 185.730469 197.355469 186.191406 197.3125 186.644531 197.21875 C 187.101562 197.128906 187.542969 196.996094 187.972656 196.816406 C 188.402344 196.640625 188.808594 196.421875 189.195312 196.164062 C 189.582031 195.90625 189.9375 195.613281 190.265625 195.285156 C 190.59375 194.957031 190.886719 194.601562 191.144531 194.214844 C 191.402344 193.828125 191.621094 193.421875 191.796875 192.992188 C 191.976562 192.5625 192.109375 192.121094 192.199219 191.664062 C 192.292969 191.210938 192.335938 190.75 192.335938 190.285156 C 192.335938 189.824219 192.289062 189.363281 192.199219 188.90625 C 192.109375 188.453125 191.972656 188.011719 191.796875 187.582031 C 191.617188 187.152344 191.398438 186.746094 191.140625 186.359375 C 190.882812 185.976562 190.589844 185.617188 190.261719 185.289062 C 189.933594 184.960938 189.578125 184.667969 189.191406 184.410156 C 188.804688 184.152344 188.398438 183.933594 187.972656 183.757812 C 187.542969 183.578125 187.101562 183.445312 186.644531 183.355469 C 186.191406 183.261719 185.730469 183.21875 185.265625 183.214844 Z M 185.265625 183.214844 "
        fill-opacity="1" fill-rule="nonzero" />
    <path fill="#fcad06"
        d="M 218.820312 184.980469 C 219.167969 185.328125 219.480469 185.707031 219.753906 186.117188 C 220.027344 186.527344 220.257812 186.957031 220.449219 187.414062 C 220.636719 187.871094 220.777344 188.339844 220.875 188.820312 C 220.972656 189.304688 221.019531 189.792969 221.019531 190.285156 C 221.019531 190.78125 220.972656 191.265625 220.875 191.75 C 220.777344 192.234375 220.636719 192.703125 220.449219 193.160156 C 220.257812 193.613281 220.027344 194.046875 219.753906 194.457031 C 219.480469 194.867188 219.167969 195.246094 218.820312 195.59375 C 218.472656 195.941406 218.09375 196.253906 217.683594 196.527344 C 217.273438 196.800781 216.839844 197.03125 216.386719 197.222656 C 215.929688 197.410156 215.460938 197.550781 214.976562 197.648438 C 214.492188 197.746094 214.003906 197.792969 213.511719 197.792969 C 213.019531 197.792969 212.53125 197.746094 212.046875 197.648438 C 211.566406 197.550781 211.097656 197.410156 210.640625 197.222656 C 210.183594 197.03125 209.753906 196.800781 209.34375 196.527344 C 208.933594 196.253906 208.554688 195.941406 208.207031 195.59375 C 207.855469 195.246094 207.546875 194.867188 207.273438 194.457031 C 206.996094 194.046875 206.765625 193.613281 206.578125 193.160156 C 206.390625 192.703125 206.246094 192.234375 206.152344 191.75 C 206.054688 191.265625 206.007812 190.78125 206.007812 190.285156 C 206.007812 189.792969 206.054688 189.304688 206.152344 188.820312 C 206.246094 188.339844 206.390625 187.871094 206.578125 187.414062 C 206.765625 186.957031 206.996094 186.527344 207.273438 186.117188 C 207.546875 185.707031 207.855469 185.328125 208.207031 184.980469 C 208.554688 184.628906 208.933594 184.320312 209.34375 184.046875 C 209.753906 183.773438 210.183594 183.539062 210.640625 183.351562 C 211.097656 183.164062 211.566406 183.019531 212.046875 182.925781 C 212.53125 182.828125 213.019531 182.78125 213.511719 182.78125 C 214.003906 182.78125 214.492188 182.828125 214.976562 182.925781 C 215.460938 183.019531 215.929688 183.164062 216.386719 183.351562 C 216.839844 183.539062 217.273438 183.773438 217.683594 184.046875 C 218.09375 184.320312 218.472656 184.628906 218.820312 184.980469 Z M 218.820312 184.980469 "
        fill-opacity="1" fill-rule="nonzero" />
    <path fill="#140034"
        d="M 213.511719 198.230469 C 212.992188 198.230469 212.476562 198.179688 211.964844 198.074219 C 211.453125 197.972656 210.957031 197.824219 210.472656 197.625 C 209.992188 197.425781 209.535156 197.179688 209.101562 196.890625 C 208.667969 196.601562 208.265625 196.269531 207.898438 195.902344 C 207.527344 195.535156 207.199219 195.132812 206.910156 194.699219 C 206.621094 194.265625 206.375 193.808594 206.175781 193.324219 C 205.976562 192.84375 205.824219 192.347656 205.722656 191.835938 C 205.621094 191.324219 205.570312 190.808594 205.570312 190.285156 C 205.570312 189.765625 205.621094 189.25 205.722656 188.738281 C 205.824219 188.226562 205.976562 187.730469 206.175781 187.246094 C 206.375 186.765625 206.621094 186.308594 206.910156 185.875 C 207.199219 185.441406 207.527344 185.039062 207.898438 184.671875 C 208.265625 184.300781 208.667969 183.972656 209.101562 183.683594 C 209.535156 183.394531 209.992188 183.148438 210.472656 182.949219 C 210.957031 182.75 211.453125 182.597656 211.964844 182.496094 C 212.476562 182.394531 212.992188 182.34375 213.511719 182.34375 C 214.035156 182.34375 214.550781 182.394531 215.0625 182.496094 C 215.574219 182.597656 216.070312 182.75 216.550781 182.949219 C 217.035156 183.148438 217.492188 183.394531 217.925781 183.683594 C 218.359375 183.972656 218.761719 184.300781 219.128906 184.671875 C 219.496094 185.039062 219.828125 185.441406 220.117188 185.875 C 220.40625 186.308594 220.652344 186.765625 220.851562 187.246094 C 221.050781 187.730469 221.199219 188.226562 221.300781 188.738281 C 221.402344 189.25 221.453125 189.765625 221.453125 190.285156 C 221.453125 190.808594 221.402344 191.324219 221.300781 191.835938 C 221.199219 192.347656 221.046875 192.84375 220.847656 193.324219 C 220.648438 193.804688 220.402344 194.261719 220.113281 194.695312 C 219.824219 195.128906 219.496094 195.53125 219.125 195.898438 C 218.757812 196.269531 218.355469 196.597656 217.921875 196.886719 C 217.488281 197.175781 217.03125 197.421875 216.550781 197.621094 C 216.070312 197.820312 215.574219 197.972656 215.0625 198.074219 C 214.550781 198.175781 214.035156 198.226562 213.511719 198.230469 Z M 213.511719 183.214844 C 213.046875 183.214844 212.589844 183.261719 212.132812 183.351562 C 211.679688 183.441406 211.234375 183.578125 210.808594 183.753906 C 210.378906 183.933594 209.972656 184.148438 209.585938 184.40625 C 209.199219 184.664062 208.84375 184.960938 208.515625 185.289062 C 208.183594 185.617188 207.890625 185.972656 207.632812 186.359375 C 207.375 186.746094 207.160156 187.152344 206.980469 187.582031 C 206.804688 188.007812 206.667969 188.453125 206.578125 188.90625 C 206.488281 189.363281 206.441406 189.820312 206.441406 190.285156 C 206.441406 190.75 206.488281 191.210938 206.578125 191.664062 C 206.667969 192.121094 206.804688 192.5625 206.980469 192.992188 C 207.160156 193.421875 207.375 193.828125 207.632812 194.214844 C 207.890625 194.601562 208.183594 194.957031 208.511719 195.285156 C 208.839844 195.613281 209.199219 195.90625 209.585938 196.164062 C 209.972656 196.421875 210.378906 196.640625 210.808594 196.816406 C 211.234375 196.996094 211.679688 197.128906 212.132812 197.21875 C 212.589844 197.3125 213.046875 197.355469 213.511719 197.355469 C 213.976562 197.355469 214.4375 197.3125 214.890625 197.21875 C 215.347656 197.128906 215.789062 196.996094 216.21875 196.816406 C 216.648438 196.640625 217.054688 196.421875 217.441406 196.164062 C 217.828125 195.90625 218.183594 195.613281 218.511719 195.285156 C 218.839844 194.957031 219.132812 194.601562 219.390625 194.214844 C 219.648438 193.828125 219.867188 193.421875 220.042969 192.992188 C 220.222656 192.5625 220.355469 192.121094 220.445312 191.664062 C 220.539062 191.210938 220.582031 190.75 220.582031 190.285156 C 220.582031 189.824219 220.535156 189.363281 220.445312 188.90625 C 220.355469 188.453125 220.21875 188.011719 220.042969 187.582031 C 219.863281 187.152344 219.648438 186.746094 219.390625 186.359375 C 219.128906 185.976562 218.835938 185.617188 218.507812 185.289062 C 218.179688 184.960938 217.824219 184.667969 217.4375 184.410156 C 217.054688 184.152344 216.644531 183.933594 216.21875 183.757812 C 215.789062 183.578125 215.347656 183.445312 214.890625 183.355469 C 214.4375 183.261719 213.976562 183.21875 213.511719 183.214844 Z M 213.511719 183.214844 "
        fill-opacity="1" fill-rule="nonzero" />
    <path fill="#140034"
        d="M 198.914062 219.023438 C 198.855469 219.023438 198.796875 219.023438 198.738281 219.023438 C 196.785156 219 194.890625 218.660156 193.050781 218 C 191.210938 217.335938 189.53125 216.394531 188.011719 215.167969 C 187.875 215.058594 187.765625 214.925781 187.683594 214.773438 C 187.601562 214.621094 187.550781 214.460938 187.53125 214.289062 C 187.515625 214.117188 187.53125 213.945312 187.578125 213.78125 C 187.628906 213.613281 187.707031 213.460938 187.816406 213.328125 C 187.925781 213.191406 188.054688 213.085938 188.207031 213 C 188.359375 212.917969 188.523438 212.867188 188.695312 212.847656 C 188.867188 212.832031 189.035156 212.847656 189.203125 212.894531 C 189.371094 212.945312 189.519531 213.023438 189.65625 213.132812 C 190.945312 214.171875 192.375 214.976562 193.933594 215.535156 C 195.496094 216.097656 197.105469 216.386719 198.765625 216.40625 C 198.816406 216.40625 198.867188 216.40625 198.914062 216.40625 C 200.550781 216.40625 202.140625 216.140625 203.683594 215.613281 C 205.230469 215.082031 206.648438 214.320312 207.941406 213.320312 C 208.078125 213.214844 208.230469 213.136719 208.398438 213.09375 C 208.566406 213.046875 208.734375 213.035156 208.90625 213.058594 C 209.078125 213.078125 209.242188 213.132812 209.390625 213.21875 C 209.542969 213.304688 209.667969 213.414062 209.777344 213.550781 C 209.882812 213.6875 209.957031 213.839844 210.003906 214.007812 C 210.050781 214.175781 210.0625 214.34375 210.042969 214.515625 C 210.019531 214.6875 209.964844 214.851562 209.878906 215 C 209.792969 215.152344 209.683594 215.28125 209.546875 215.386719 C 208.023438 216.566406 206.351562 217.464844 204.53125 218.085938 C 202.710938 218.710938 200.839844 219.023438 198.914062 219.023438 Z M 198.914062 219.023438 "
        fill-opacity="1" fill-rule="nonzero" />
    <path fill="#ffffff"
        d="M 157.777344 186.910156 C 157.542969 185.285156 157.5 183.65625 157.652344 182.019531 C 157.800781 180.386719 158.140625 178.789062 158.667969 177.234375 C 159.195312 175.679688 159.898438 174.207031 160.773438 172.820312 C 161.648438 171.429688 162.671875 170.160156 163.847656 169.015625 L 164.453125 169.644531 C 163.328125 170.742188 162.347656 171.957031 161.507812 173.285156 C 160.667969 174.617188 160 176.027344 159.492188 177.515625 C 158.988281 179.003906 158.664062 180.53125 158.519531 182.097656 C 158.375 183.664062 158.414062 185.222656 158.640625 186.78125 Z M 157.777344 186.910156 "
        fill-opacity="1" fill-rule="nonzero" />
    <path fill="#ffffff"
        d="M 241.003906 186.910156 L 240.144531 186.78125 C 240.367188 185.222656 240.40625 183.664062 240.265625 182.097656 C 240.121094 180.53125 239.796875 179.003906 239.289062 177.515625 C 238.785156 176.027344 238.113281 174.617188 237.273438 173.285156 C 236.4375 171.957031 235.453125 170.742188 234.328125 169.644531 L 234.933594 169.015625 C 236.109375 170.160156 237.132812 171.429688 238.011719 172.820312 C 238.886719 174.207031 239.585938 175.679688 240.113281 177.234375 C 240.640625 178.789062 240.980469 180.386719 241.132812 182.019531 C 241.28125 183.65625 241.242188 185.285156 241.003906 186.910156 Z M 241.003906 186.910156 "
        fill-opacity="1" fill-rule="nonzero" />
    <path fill="#fcad06"
        d="M 190.742188 271.578125 L 190.800781 271.6875 C 188.96875 271.496094 187.152344 271.238281 185.359375 270.917969 L 189.605469 270.917969 C 190.113281 270.917969 190.492188 271.136719 190.742188 271.578125 Z M 190.742188 271.578125 "
        fill-opacity="1" fill-rule="nonzero" />
    <path fill="#fcad06"
        d="M 202.992188 271.957031 C 202.082031 272.015625 201.167969 272.050781 200.246094 272.070312 L 198.824219 268.183594 L 197.972656 272.089844 C 197.078125 272.082031 196.195312 272.058594 195.308594 272.019531 L 197.226562 263.222656 C 197.289062 262.9375 197.429688 262.699219 197.648438 262.511719 C 197.871094 262.320312 198.125 262.214844 198.414062 262.195312 C 198.707031 262.175781 198.972656 262.246094 199.21875 262.40625 C 199.460938 262.5625 199.632812 262.78125 199.730469 263.054688 Z M 202.992188 271.957031 "
        fill-opacity="1" fill-rule="nonzero" />
</svg>