<svg xmlns="http://www.w3.org/2000/svg" xmlns:xlink="http://www.w3.org/1999/xlink"
    zoomAndPan="magnify" viewBox="0 0 396.75 396.749984"
    preserveAspectRatio="xMidYMid meet" version="1.0">
    <defs>
        <clipPath id="a67d1d3cd5">
            <path d="M 0 0 L 396.5 0 L 396.5 396.5 L 0 396.5 Z M 0 0 " clip-rule="nonzero" />
        </clipPath>
        <clipPath id="ae10ca4a16">
            <path d="M 50 231 L 347 231 L 347 396.5 L 50 396.5 Z M 50 231 " clip-rule="nonzero" />
        </clipPath>
    </defs>
    <g clip-path="url(#a67d1d3cd5)">
        <path fill="#0085f8"
            d="M 396.769531 198.382812 C 396.769531 249.136719 377.722656 295.421875 346.363281 330.503906 C 310.042969 371.171875 257.207031 396.765625 198.386719 396.765625 C 139.566406 396.765625 86.714844 371.171875 50.410156 330.503906 C 19.050781 295.421875 0.0078125 249.136719 0.0078125 198.382812 C 0.0078125 88.828125 88.8125 0.00390625 198.386719 0.00390625 C 307.941406 0.00390625 396.769531 88.828125 396.769531 198.382812 "
            fill-opacity="1" fill-rule="nonzero" />
    </g>
    <path fill="#ffffff"
        d="M 198.386719 234.925781 C 234.339844 234.925781 267.089844 194.246094 267.089844 149.582031 C 267.089844 107.378906 258.929688 65.644531 198.386719 65.644531 C 137.839844 65.644531 129.671875 107.378906 129.671875 149.582031 C 129.671875 194.246094 162.425781 234.925781 198.386719 234.925781 "
        fill-opacity="1" fill-rule="nonzero" />
    <g clip-path="url(#ae10ca4a16)">
        <path fill="#ffffff"
            d="M 346.363281 330.503906 C 310.042969 371.171875 257.207031 396.765625 198.386719 396.765625 C 139.566406 396.765625 86.714844 371.171875 50.410156 330.503906 C 49.785156 306.003906 66.101562 249.234375 149.320312 231.761719 C 163.554688 246.292969 181.078125 254.507812 198.386719 254.507812 C 215.695312 254.507812 233.203125 246.292969 247.4375 231.761719 C 330.675781 249.234375 346.972656 306.003906 346.363281 330.503906 "
            fill-opacity="1" fill-rule="nonzero" />
    </g>
</svg>